# xmcd CD database file
#
# Track frame offsets:
#	150
#	16442
#	26894
#	39772
#	52197
#	65358
#	80097
#	94726
#	111200
#	123725
#	139820
#	155402
#
# Disc length: 2287 seconds
#
# Revision: 0
# Processed by: cddbd v1.5.1PL0 Copyright (c) Steve Scherf et al.
# Submitted via: CDex 1.50
#
DISCID=a508ed0c
DTITLE=Caroline Wennergren - Bossa Supernova
DYEAR=2005
DGENRE=Jazz
TTITLE0=Doing The Bossa Supernova
TTITLE1=A-Tisket, A-Tasket
TTITLE2=You and I
TTITLE3=I Love You Cause You´re You
TTITLE4=The Hokey Pokey
TTITLE5=A Different Kind of Love
TTITLE6=Saxophone Song
TTITLE7=Danicing All Over The World
TTITLE8=Hey Boy!
TTITLE9=A Heartache On The Side
TTITLE10=Love Me Babe
TTITLE11=Somebody
EXTD=YEAR: 2005
EXTT0=
EXTT1=
EXTT2=
EXTT3=
EXTT4=
EXTT5=
EXTT6=
EXTT7=
EXTT8=
EXTT9=
EXTT10=
EXTT11=
PLAYORDER=
